# xmcd CD database file
#
# Track frame offsets:
#	182
#	12820
#	24437
#	38125
#	50972
#	60905
#	73617
#	85415
#	96725
#	108215
#
# Disc length: 1576 seconds
#
# Revision: 4
# Processed by: cddbd v1.5.2PL0 Copyright (c) Steve Scherf et al.
# Submitted via: CDex 1.70beta2
#
DISCID=8006260a
DTITLE=Various Artist - Billboard Greatest Country Christmas Hits
DYEAR=1990
DGENRE=Christmas
TTITLE0=Ernest Tubb - Blue Christmas
TTITLE1=Tex Ritter - Christmas Carols By The Old Corral
TTITLE2=Eddy Arnold - Will Santy Come To Shanty Town
TTITLE3=Jimmy Dean - Little Sandy Sleighfoot
TTITLE4=Bobby Helms - Jingle Bell Rock
TTITLE5=Ernest Tubb - White Christmas
TTITLE6=Johnny Cash - The Little Drummer Boy
TTITLE7=Eddy Arnold - CHRISTMAS
TTITLE8=Jimmy Boyd - I Saw Mommy Kissing Santa Claus
TTITLE9=Buck Owens and The Buckaroos - Santa Looked A Lot Like Daddy
EXTD=YEAR: 1990
EXTT0=
EXTT1=
EXTT2=
EXTT3=
EXTT4=
EXTT5=
EXTT6=
EXTT7=
EXTT8=
EXTT9=
PLAYORDER=
